PathFileType	4	(X/Y/Z)	/Users/itak/Documents/Research/Walk-IL/dataset/trc/00260_00009.trc
DataRate	CameraRate	NumFrames	NumMarkers	Units	OrigDataRate	OrigDataStartFrame	OrigNumFrames
100.000000	100.000000	4	53	mm	100.000000	0	493
Frame#	Time	RPSI			LPSI			L3			STRN			T10			C7			CLAV			RBAK			LBAK			LSHO			LUPA			LAEL			LAOL			LWTS			LWPS			LFRA			LIFD			LHPS			LHTS			RSHO			RUPA			RAEL			RAOL			RWTS			RWPS			RFRA			RIFD			RHTS			RHPS			RBHD			LFHD			RFHD			LBHD			LHIP			RHIP			RASI			LASI			LKNE			LTHI			LANK			LTIP			LTOE			LMT1			LMT5			LHEE			RKNE			RTHI			RTIP			RTOE			RMT1			RMT5			RHEE			RANK			
		X1	Y1	Z1	X2	Y2	Z2	X3	Y3	Z3	X4	Y4	Z4	X5	Y5	Z5	X6	Y6	Z6	X7	Y7	Z7	X8	Y8	Z8	X9	Y9	Z9	X10	Y10	Z10	X11	Y11	Z11	X12	Y12	Z12	X13	Y13	Z13	X14	Y14	Z14	X15	Y15	Z15	X16	Y16	Z16	X17	Y17	Z17	X18	Y18	Z18	X19	Y19	Z19	X20	Y20	Z20	X21	Y21	Z21	X22	Y22	Z22	X23	Y23	Z23	X24	Y24	Z24	X25	Y25	Z25	X26	Y26	Z26	X27	Y27	Z27	X28	Y28	Z28	X29	Y29	Z29	X30	Y30	Z30	X31	Y31	Z31	X32	Y32	Z32	X33	Y33	Z33	X34	Y34	Z34	X35	Y35	Z35	X36	Y36	Z36	X37	Y37	Z37	X38	Y38	Z38	X39	Y39	Z39	X40	Y40	Z40	X41	Y41	Z41	X42	Y42	Z42	X43	Y43	Z43	X44	Y44	Z44	X45	Y45	Z45	X46	Y46	Z46	X47	Y47	Z47	X48	Y48	Z48	X49	Y49	Z49	X50	Y50	Z50	X51	Y51	Z51	X52	Y52	Z52	X53	Y53	Z53	

1	0	-1446.731689453125	1042.077880859375	652.5955200195312	-1437.694458007812	1046.312377929688	531.6272583007812	-1444.975708007812	1125.853759765625	573.8193969726562	-1199.225463867188	1320.9541015625	587.501220703125	-1452.823608398438	1252.220336914062	577.08740234375	-1397.70751953125	1514.786010742188	576.9679565429688	-1228.302124023438	1438.498413085938	588.5950927734375	-1472.305541992188	1374.074096679688	646.2574462890625	-1411.941772460938	1478.292114257812	466.3486022949219	-1320.203125	1482.970336914062	414.9801330566406	-1343.891967773438	1364.083740234375	334.891357421875	-1322.186279296875	1152.07861328125	313.8849487304688	-1395.640502929688	1134.610473632812	357.7763061523438	-1221.103759765625	926.21044921875	386.8589782714844	-1240.818603515625	904.3585815429688	307.6363220214844	-1293.9208984375	1045.35546875	305.939453125	-1200.679809570312	734.3668823242188	389.4886474609375	-1216.7607421875	817.9155883789062	317.8374938964844	-1173.94140625	829.139892578125	372.5150146484375	-1349.5888671875	1479.634155273438	749.5545043945312	-1372.586303710938	1415.453369140625	815.3583374023438	-1389.447875976562	1134.822021484375	858.5598754882812	-1413.5185546875	1128.1181640625	766.695556640625	-1244.422241210938	923.1802978515625	826.3175048828125	-1301.21923828125	906.7665405273438	886.9717407226562	-1360.980590820312	1066.828247070312	872.9916381835938	-1241.141235351562	747.922607421875	804.50537109375	-1201.0634765625	802.8893432617188	843.2843017578125	-1257.971923828125	800.260498046875	890.2483520507812	-1371.0361328125	1666.669799804688	624.2880249023438	-1166.688598632812	1726.669311523438	544.476806640625	-1175.316040039062	1728.232421875	643.80126953125	-1316.23388671875	1674.881713867188	494.8186645507812	-1326.902099609375	983.1680297851562	396.1963195800781	-1352.024658203125	1006.868530273438	763.7241821289062	-1254.735229492188	1048.470092773438	732.3568115234375	-1230.107666015625	1027.139038085938	451.4936828613281	-1293.817626953125	499.8523864746094	478.9945373535156	-1294.511108398438	641.8306884765625	439.7238464355469	-1421.809936523438	37.18996047973633	520.4607543945312	-1358.855224609375	276.3328552246094	491.3578491210938	-1209.482543945312	47.20308303833008	586.7986450195312	-1279.1552734375	39.90857315063477	627.5621948242188	-1291.238891601562	42.26973342895508	512.0411987304688	-1486.9306640625	41.53783798217773	570.4606323242188	-1227.070678710938	522.4735107421875	757.4651489257812	-1265.049194335938	790.7155151367188	782.3599853515625	-1239.60107421875	399.4723205566406	747.8831176757812	-1214.595581054688	67.29509735107422	719.3055419921875	-1265.75	56.76318359375	673.39453125	-1315.986572265625	61.38508605957031	781.8455200195312	-1481.370361328125	72.41703796386719	689.4249877929688	-1422.116943359375	68.90612030029297	750.3353881835938	
2	0.01	-1446.031982421875	1042.09521484375	652.5841674804688	-1437.131103515625	1046.326049804688	531.6187744140625	-1444.336791992188	1125.918212890625	573.7820434570312	-1198.4765625	1320.872924804688	587.3311767578125	-1452.10546875	1252.260375976562	577.0932006835938	-1396.7744140625	1514.830322265625	576.9774780273438	-1227.451416015625	1438.416748046875	588.4623413085938	-1471.4296875	1374.15576171875	646.2654418945312	-1411.127319335938	1478.355224609375	466.3364868164062	-1319.414672851562	1482.972534179688	414.9338073730469	-1343.296264648438	1364.132934570312	334.8240356445312	-1321.664184570312	1152.089477539062	313.8103332519531	-1395.13525390625	1134.68359375	357.7583618164062	-1220.6201171875	926.2412109375	386.7840576171875	-1240.435180664062	904.3588256835938	307.5400390625	-1293.434448242188	1045.354736328125	305.8445434570312	-1200.1630859375	734.42822265625	389.4450073242188	-1216.310668945312	817.89404296875	317.76123046875	-1173.463989257812	829.1731567382812	372.4570617675781	-1348.580932617188	1479.619018554688	749.5250854492188	-1371.599487304688	1415.417846679688	815.33056640625	-1388.758178710938	1134.8115234375	858.4129638671875	-1412.738525390625	1128.11376953125	766.4998779296875	-1243.6748046875	923.1194458007812	826.36474609375	-1300.854736328125	906.6461791992188	886.8593139648438	-1360.43408203125	1066.798095703125	872.8877563476562	-1240.116943359375	747.9117431640625	804.7689208984375	-1200.406860351562	802.925537109375	843.76171875	-1257.491455078125	800.2984619140625	890.433349609375	-1369.995971679688	1666.671264648438	624.3185424804688	-1165.760131835938	1726.570068359375	544.1696166992188	-1174.205078125	1728.17431640625	643.525390625	-1315.34765625	1674.8125	494.7551879882812	-1326.487670898438	983.1106567382812	396.0897521972656	-1351.24267578125	1007.006164550781	763.6834106445312	-1253.960327148438	1048.475341796875	732.165771484375	-1229.528076171875	1027.079833984375	451.2947692871094	-1293.547973632812	499.7636108398438	478.916015625	-1294.241577148438	641.7621459960938	439.6390991210938	-1421.805053710938	37.19819641113281	520.4661254882812	-1358.757446289062	276.3046875	491.3673706054688	-1209.46875	47.18923568725586	586.796142578125	-1279.137084960938	39.94791412353516	627.5227661132812	-1291.2626953125	42.25191116333008	512.02685546875	-1486.926879882812	41.55303573608398	570.4701538085938	-1224.418334960938	522.9890747070312	757.387451171875	-1263.532104492188	791.0819091796875	782.2095947265625	-1237.031005859375	399.9982604980469	747.8477172851562	-1212.558471679688	67.74079895019531	719.374755859375	-1263.77001953125	57.27570724487305	673.52880859375	-1313.916015625	62.00284194946289	782.0216674804688	-1479.373291015625	73.21449279785156	689.6937866210938	-1420.03759765625	69.6214599609375	750.5556030273438	
3	0.02	-1445.08544921875	1042.122802734375	652.5767822265625	-1436.354614257812	1046.339111328125	531.6179809570312	-1443.468383789062	1126.008422851562	573.744873046875	-1197.45556640625	1320.764892578125	587.1150512695312	-1451.131469726562	1252.3251953125	577.1048583984375	-1395.517578125	1514.890869140625	576.9967651367188	-1226.297119140625	1438.313110351562	588.2979736328125	-1470.25	1374.267211914062	646.2855834960938	-1410.02197265625	1478.44140625	466.3309631347656	-1318.345458984375	1482.983032226562	414.8800048828125	-1342.47216796875	1364.205200195312	334.7456970214844	-1320.962890625	1152.111938476562	313.7102355957031	-1394.454223632812	1134.791625976562	357.7264404296875	-1219.998779296875	926.2752685546875	386.6725769042969	-1239.923095703125	904.3602294921875	307.4054260253906	-1292.78857421875	1045.363525390625	305.7183227539062	-1199.533081054688	734.4983520507812	389.3732299804688	-1215.73193359375	817.8676147460938	317.649658203125	-1172.886840820312	829.2041015625	372.3522338867188	-1347.224853515625	1479.598876953125	749.4931030273438	-1370.272827148438	1415.375366210938	815.2996215820312	-1387.822387695312	1134.797119140625	858.2182006835938	-1411.692138671875	1128.114379882812	766.2517700195312	-1242.68359375	923.0393676757812	826.4441528320312	-1300.364868164062	906.4822387695312	886.6907348632812	-1359.687744140625	1066.76025390625	872.7454223632812	-1238.669311523438	747.9091186523438	805.2210693359375	-1199.496215820312	802.9996948242188	844.4896240234375	-1256.840087890625	800.3672485351562	890.7166748046875	-1368.592041015625	1666.677001953125	624.3685913085938	-1164.500854492188	1726.438720703125	543.7742309570312	-1172.70849609375	1728.094970703125	643.1657104492188	-1314.1533203125	1674.725952148438	494.6868591308594	-1325.914306640625	983.0344848632812	395.9593505859375	-1350.195556640625	1007.187072753906	763.6240234375	-1252.91162109375	1048.487670898438	731.918212890625	-1228.749877929688	1027.000610351562	451.0320739746094	-1293.201171875	499.6448059082031	478.8171081542969	-1293.873779296875	641.6638793945312	439.5324096679688	-1421.798095703125	37.21022415161133	520.4745483398438	-1358.638916015625	276.2615966796875	491.3786926269531	-1209.450073242188	47.17217254638672	586.7928466796875	-1279.117919921875	39.98902130126953	627.4801025390625	-1291.29443359375	42.23085403442383	512.0071411132812	-1486.923095703125	41.57398223876953	570.4832763671875	-1220.895629882812	523.68603515625	757.290283203125	-1261.491088867188	791.57568359375	782.015869140625	-1233.5810546875	400.7073059082031	747.8118286132812	-1209.710327148438	68.32700347900391	719.5032348632812	-1260.994384765625	57.93738174438477	673.7371215820312	-1311.019165039062	62.79278564453125	782.2824096679688	-1476.571044921875	74.21565246582031	690.0840454101562	-1417.138549804688	70.52363586425781	750.8795166015625	
4	0.03	-1443.900634765625	1042.1630859375	652.578857421875	-1435.364990234375	1046.350219726562	531.6298217773438	-1442.375732421875	1126.124755859375	573.7150268554688	-1196.167358398438	1320.6318359375	586.8623657226562	-1449.908569335938	1252.419189453125	577.1248779296875	-1393.951416015625	1514.967529296875	577.029541015625	-1224.848022460938	1438.191284179688	588.1111450195312	-1468.779541015625	1374.407470703125	646.3226318359375	-1408.6337890625	1478.550659179688	466.337890625	-1317.003662109375	1483.005493164062	414.8240966796875	-1341.418212890625	1364.302734375	334.6632690429688	-1320.091064453125	1152.150512695312	313.5861206054688	-1393.604614257812	1134.938232421875	357.67724609375	-1219.26171875	926.3081665039062	386.520263671875	-1239.291015625	904.36376953125	307.2316589355469	-1291.995727539062	1045.387084960938	305.5625305175781	-1198.828247070312	734.56982421875	389.2662963867188	-1215.046020507812	817.838623046875	317.4989929199219	-1172.250854492188	829.2246704101562	372.1879272460938	-1345.53662109375	1479.573486328125	749.4630737304688	-1368.622436523438	1415.328735351562	815.2696533203125	-1386.6484375	1134.778564453125	857.9800415039062	-1410.393432617188	1128.123168945312	765.9615478515625	-1241.4677734375	922.9420166015625	826.5640869140625	-1299.755981445312	906.275390625	886.4584350585938	-1358.74609375	1066.716186523438	872.5660400390625	-1236.778442382812	747.9227294921875	805.9113159179688	-1198.32666015625	803.12744140625	845.5055541992188	-1256.0224609375	800.476318359375	891.1149291992188	-1366.8388671875	1666.689208984375	624.4425659179688	-1162.921142578125	1726.2783203125	543.305908203125	-1170.84375	1727.994995117188	642.7337646484375	-1312.664672851562	1674.626708984375	494.6240539550781	-1325.1806640625	982.9403076171875	395.8137817382812	-1348.89794921875	1007.407287597656	763.5457763671875	-1251.598510742188	1048.509887695312	731.622314453125	-1227.782836914062	1026.902709960938	450.711669921875	-1292.791259765625	499.4981994628906	478.7022705078125	-1293.40966796875	641.5343017578125	439.4090270996094	-1421.788696289062	37.22635269165039	520.4865112304688	-1358.507934570312	276.2021484375	491.3910217285156	-1209.427001953125	47.15328979492188	586.7888793945312	-1279.100463867188	40.02583694458008	627.4393310546875	-1291.33349609375	42.20836639404297	511.9823913574219	-1486.919799804688	41.60041427612305	570.499755859375	-1216.572631835938	524.5574951171875	757.1792602539062	-1258.953247070312	792.1910400390625	781.786865234375	-1229.298217773438	401.5911254882812	747.7827758789062	-1206.02392578125	69.03994750976562	719.7073364257812	-1257.391845703125	58.72505187988281	674.0306396484375	-1307.267456054688	63.72171783447266	782.6365966796875	-1472.933349609375	75.36557769775391	690.605224609375	-1413.395874023438	71.56612396240234	751.317626953125	
